<?xml version="1.0" encoding="UTF-8"?>
<svg width="574px" height="124px" viewBox="0 0 574 124" version="1.1" xmlns="http://www.w3.org/2000/svg" xmlns:xlink="http://www.w3.org/1999/xlink">
    <!-- Generator: Sketch 61 (89581) - https://sketch.com -->
    <title>Freshline_Logo</title>
    <desc>Created with Sketch.</desc>
    <g id="Page-1" stroke="none" stroke-width="1" fill="none" fill-rule="evenodd">
        <g id="Freshline_Logo">
            <path d="M37.611,123.953 L0.5,123.953 L5.472,105.397 C8.218,95.149 18.752,86.842 28.999,86.842 L66.11,86.842 L61.138,105.397 C58.392,115.645 47.858,123.953 37.611,123.953" id="Fill-1" fill="#098F46"></path>
            <path d="M116.918,37.267 L24.142,37.267 L29.114,18.711 C31.859,8.463 42.393,0.156 52.641,0.156 L145.417,0.156 L140.446,18.711 C137.7,28.959 127.167,37.267 116.918,37.267" id="Fill-2" fill="#7FC399"></path>
            <path d="M77.265,80.609 L12.321,80.609 L17.293,62.054 C20.039,51.806 30.572,43.499 40.82,43.499 L105.764,43.499 L100.792,62.054 C98.046,72.302 87.512,80.609 77.265,80.609" id="Fill-3" fill="#3BAE6E"></path>
            <polyline id="Fill-4" fill="#0A0B09" points="166.043 102.688 166.043 27.09 205.785 27.09 205.785 41.346 181.379 41.346 181.379 55.926 198.01 55.926 198.01 70.181 181.379 70.181 181.379 102.688 166.043 102.688"></polyline>
            <path d="M222.957,102.688 L207.837,102.688 L207.837,49.986 L222.957,49.986 L222.957,53.55 C222.957,54.737 222.741,56.681 222.417,58.733 C225.44,53.01 230.192,48.689 237.104,48.689 L237.104,63.485 C229.221,63.485 222.957,68.021 222.957,76.661 L222.957,102.688" id="Fill-5" fill="#0A0B09"></path>
            <path d="M257.622,70.289 L278.464,70.289 C277.493,64.241 272.849,61.109 268.205,61.109 C263.345,61.109 259.133,64.133 257.622,70.289 Z M257.189,79.576 C258.27,88.324 263.669,91.564 269.609,91.564 C275.44,91.564 279.437,88.864 282.028,85.084 L292.072,92.32 C286.456,99.88 280.732,103.768 268.745,103.768 C253.302,103.768 241.962,92.428 241.962,76.229 C241.962,61.217 252.113,48.798 268.313,48.798 C286.132,48.798 293.152,61.541 293.152,77.741 L293.152,79.576 L257.189,79.576 L257.189,79.576 Z" id="Fill-6" fill="#0A0B09"></path>
            <path d="M306.326,84.977 C309.998,89.188 315.83,90.916 320.905,90.916 C324.145,90.916 326.521,89.62 326.521,87.676 C326.521,84.977 323.821,83.68 319.394,82.384 C311.186,80.009 301.034,75.472 301.034,64.781 C301.034,54.629 310.862,48.906 319.717,48.906 C327.709,48.906 333.325,51.605 338.077,56.574 L329.653,65.646 C327.385,63.162 323.173,60.894 320.042,60.894 C317.233,60.894 315.181,62.189 315.181,64.241 C315.181,66.833 318.205,68.129 322.958,69.533 C330.949,71.908 341.208,76.876 341.208,86.92 C341.208,96.856 332.677,103.768 320.797,103.768 C311.293,103.768 303.518,101.068 297.794,94.912 L306.326,84.977" id="Fill-7" fill="#0A0B09"></path>
            <path d="M349.09,102.688 L349.09,21.691 L364.209,21.691 L364.209,53.55 C364.209,54.414 364.102,55.817 363.885,57.221 C367.341,52.253 372.633,48.689 379.869,48.689 C390.776,48.689 398.984,57.221 398.984,71.368 L398.984,102.688 L383.756,102.688 L383.756,72.233 C383.756,64.889 379.112,61.109 374.037,61.109 C369.393,61.109 364.857,64.781 364.209,72.341 L364.209,102.688 L349.09,102.688" id="Fill-8" fill="#0A0B09"></path>
            <polygon id="Fill-9" fill="#0A0B09" points="410.106 102.688 425.441 102.688 425.441 21.691 410.106 21.691"></polygon>
            <path d="M437.104,102.688 L452.547,102.688 L452.547,49.986 L437.104,49.986 L437.104,102.688 Z M444.987,23.743 C450.387,23.743 454.923,28.279 454.923,33.678 C454.923,39.079 450.387,43.614 444.987,43.614 C439.587,43.614 435.052,39.079 435.052,33.678 C435.052,28.279 439.587,23.743 444.987,23.743 L444.987,23.743 Z" id="Fill-10" fill="#0A0B09"></path>
            <path d="M479.653,102.688 L464.534,102.688 L464.534,49.986 L479.653,49.986 L479.653,53.55 C479.653,54.414 479.545,55.71 479.329,57.221 C482.785,52.253 488.077,48.689 495.313,48.689 C506.22,48.689 514.428,57.221 514.428,71.368 L514.428,102.688 L499.2,102.688 L499.2,72.233 C499.2,64.889 494.556,61.109 489.48,61.109 C484.945,61.109 479.869,64.781 479.653,71.801 L479.653,102.688" id="Fill-11" fill="#0A0B09"></path>
            <path d="M537.97,70.289 L558.813,70.289 C557.841,64.241 553.197,61.109 548.553,61.109 C543.693,61.109 539.481,64.133 537.97,70.289 Z M537.538,79.576 C538.618,88.324 544.018,91.564 549.957,91.564 C555.789,91.564 559.785,88.864 562.376,85.084 L572.42,92.32 C566.804,99.88 561.081,103.768 549.093,103.768 C533.65,103.768 522.311,92.428 522.311,76.229 C522.311,61.217 532.462,48.798 548.661,48.798 C566.48,48.798 573.5,61.541 573.5,77.741 L573.5,79.576 L537.538,79.576 L537.538,79.576 Z" id="Fill-12" fill="#0A0B09"></path>
        </g>
    </g>
</svg>